<svg xmlns="http://www.w3.org/2000/svg" xmlns:xlink="http://www.w3.org/1999/xlink" id="Layer_1" x="0px" y="0px" viewBox="0 0 428.2 276.5" style="enable-background:new 0 0 428.2 276.5;" xml:space="preserve"><style type="text/css">	.st0{fill:url(#SVGID_1_);}	.st1{fill:url(#SVGID_2_);}	.st2{fill:url(#SVGID_3_);}	.st3{fill:url(#SVGID_4_);}	.st4{fill:url(#SVGID_5_);}	.st5{fill:url(#SVGID_6_);}	.st6{fill:url(#SVGID_7_);}	.st7{fill:url(#SVGID_8_);}	.st8{fill:url(#SVGID_9_);}	.st9{fill:url(#SVGID_10_);}	.st10{fill:url(#SVGID_11_);}	.st11{fill:url(#SVGID_12_);}	.st12{fill:url(#SVGID_13_);}	.st13{fill:url(#SVGID_14_);}	.st14{fill:url(#SVGID_15_);}	.st15{fill:#FFFFFF;}	.st16{fill:url(#SVGID_16_);}	.st17{fill:#F4F4F4;}	.st18{clip-path:url(#SVGID_18_);}	.st19{fill:url(#SVGID_19_);}</style><g>	<radialGradient id="SVGID_1_" cx="279.509" cy="120.3164" r="53.3858" gradientUnits="userSpaceOnUse">		<stop offset="0" style="stop-color:#C6883C"></stop>		<stop offset="0.5" style="stop-color:#EFCF80"></stop>		<stop offset="1" style="stop-color:#C6883C"></stop>	</radialGradient>	<path class="st0" d="M248.7,136.4c-5.3,7.7-11.4,14.4-20.4,19.4c14.7-19.1,22.3-38.4,5.7-59.9c4.1,12.1,0.6,21.2-10.4,27.7  c1.6-2.8,3.4-5.3,4.5-8.1c2.6-6.4,1.3-12.7-2.7-17.9c-3.4-4.4-7.4-8.4-11.7-11.8c-12.4-10-23.7-20.9-30.6-35.6  c-1.8-3.8-4.3-5-5.8-9c20.4-10.4,53.3-12.5,76.7,6.7c24.3,20,32.8,52.3,22.6,80.2c-11.3,30.9-39.2,49.6-71.7,48.5  c10.2-4.1,19.5-8.5,27.6-15C240.6,155,247.3,147.4,248.7,136.4z"></path>	<g>		<linearGradient id="SVGID_2_" gradientUnits="userSpaceOnUse" x1="64.3463" y1="248.3948" x2="64.3463" y2="186.9998">			<stop offset="2.886407e-02" style="stop-color:#000000"></stop>			<stop offset="0.5736" style="stop-color:#C6883C"></stop>			<stop offset="1" style="stop-color:#EFCF80"></stop>		</linearGradient>		<path class="st1" d="M51.8,226c1-0.5,2.1-0.8,3.3-0.8h0.4v-18.3c-1-1-1.6-1.5-2.6-1.5c1.7-0.8,3.2-2.4,4.4-3.8   c1.3,1.5,2.8,3.1,4.3,4.5c1.3-1.3,2.8-2.7,4-3.8c0.7-0.7,1.4-1.3,2.1-1.9c3,1.3,4.9,3.4,6.4,6.2c0.8,1.5,1.2,2.7,2.2,4   c-0.2-0.1-0.5-0.1-0.8-0.1c-1.8,0-4,1.8-6,2.9c3.8,0.6,7.2,2.6,7.2,7c0,2.5-2.3,5.2-4.2,6.3c-1.9,1.1-7.9,3.8-8.8,5.1   c-1.2-0.9-2.8-2.3-4.8-3.4C56.7,227,54.5,226.2,51.8,226z M61.6,218.9l2.1-1.7V205l-2.1,2V218.9z M61.6,219.6v6.4l2.1,0.5V218   L61.6,219.6z M64.5,216.7l3.8-2.9c0.9-0.9,1.7-2.2,1.7-3.5c0-2.3-3.9-5.9-5.5-6V216.7z M64.5,217.5v9.1c1,0.2,1.9,0.3,2.6,0.3   c2.6,0,3.8-2.6,3.8-4.7c0-3.2-2.2-5.5-5.5-5.5L64.5,217.5z"></path>		<linearGradient id="SVGID_3_" gradientUnits="userSpaceOnUse" x1="88.3664" y1="248.3948" x2="88.3664" y2="186.9998">			<stop offset="2.886407e-02" style="stop-color:#000000"></stop>			<stop offset="0.5736" style="stop-color:#C6883C"></stop>			<stop offset="1" style="stop-color:#EFCF80"></stop>		</linearGradient>		<path class="st2" d="M79.1,225.9c0.1-0.1,0.2-0.3,0.3-0.5c0.2-0.3,0.5-0.7,0.9-1v-11.7c3.2-1.4,6.3-3,9.5-4.9c1.8,1.6,5.4,4,7.7,4   c-0.3,0.6-0.7,1.1-1.2,1.5v11.8c-2.8,1.5-5.4,3.1-7.8,5.1C86.3,228.7,81.6,225.9,79.1,225.9z M84.2,223.5c2.7,0,5.3,1.9,6.4,3   v-11.7c1.3,0,2.1,0,3.2-0.6c-0.2,0-0.4,0-0.6,0c-2.6,0-5.4-2-7.2-3.8v12.7c-1.2,0-2.1,0-3.2,0.6C83.3,223.6,83.8,223.5,84.2,223.5   z"></path>		<linearGradient id="SVGID_4_" gradientUnits="userSpaceOnUse" x1="105.0216" y1="248.3948" x2="105.0216" y2="186.9998">			<stop offset="2.886407e-02" style="stop-color:#000000"></stop>			<stop offset="0.5736" style="stop-color:#C6883C"></stop>			<stop offset="1" style="stop-color:#EFCF80"></stop>		</linearGradient>		<path class="st3" d="M99.3,201.4c1.7-0.8,3.2-2.4,4.4-3.9c1.6,1.8,3.9,3.5,6.1,4.3c-1.3,0.8-1.8,2.7-1.9,5.3v17.7   c0.1,1.9,1,3.5,2.2,3.5c0.2,0,0.5-0.1,0.7-0.2c-0.9,1.3-5.8,1-6.2,3.5c-1.6-3.9-2.4-3.2-2.4-6.8v-22   C101.1,201.9,100.3,201.4,99.3,201.4z"></path>		<linearGradient id="SVGID_5_" gradientUnits="userSpaceOnUse" x1="117.5871" y1="248.3948" x2="117.5871" y2="186.9998">			<stop offset="2.886407e-02" style="stop-color:#000000"></stop>			<stop offset="0.5736" style="stop-color:#C6883C"></stop>			<stop offset="1" style="stop-color:#EFCF80"></stop>		</linearGradient>		<path class="st4" d="M111.9,201.4c1.7-0.8,3.2-2.4,4.4-3.9c1.6,1.8,3.9,3.5,6.1,4.3c-1.3,0.8-1.8,2.7-1.9,5.3v17.7   c0.1,1.9,1,3.5,2.2,3.5c0.2,0,0.5-0.1,0.7-0.2c-0.9,1.3-5.8,1-6.2,3.5c-1.6-3.9-2.4-3.2-2.4-6.8v-22   C113.6,201.9,112.9,201.4,111.9,201.4z"></path>		<linearGradient id="SVGID_6_" gradientUnits="userSpaceOnUse" x1="134.5407" y1="248.3948" x2="134.5407" y2="186.9998">			<stop offset="2.886407e-02" style="stop-color:#000000"></stop>			<stop offset="0.5736" style="stop-color:#C6883C"></stop>			<stop offset="1" style="stop-color:#EFCF80"></stop>		</linearGradient>		<path class="st5" d="M124.4,210.5c0.9-1.3,5.6-1,6.1-3.6c1.6,3.9,2.6,3.3,2.6,6.9v10.5c0,0.9,1.4,2.1,1.8,3.2l3.1-1.8V214   c-0.1-1.9-0.9-3.5-2.2-3.5c-0.2,0-0.4,0.1-0.7,0.2c0.9-1.3,5.8-1,6.3-3.6c1.6,3.8,2.4,3.2,2.4,6.8v20.7c0,0.9,0.1,2.6,0.8,3.2   c-3.3,0.2-9.9,3.2-11,5.3c-0.6-2.1-2-4.4-4.4-4.4c-1.7,0-2.9,1.1-3.7,2.5V241c0-0.3,0.1-2.4,1.5-4.3c1-1.3,2.5-2.4,4.8-2.4h0   c2.3,0,4.8,2.1,5.7,4.6c0.2-0.1,0.4-0.2,0.6-0.3v-12.2c-1.1,0.8-6.6,4.1-7.4,6.2c0-0.2,0-0.3,0-0.5c0-1.2-0.6-2.7-1.5-4.2   c-0.9-1.4-1.8-2.7-1.8-3.9v-10.3c0-2-0.7-3.4-2.2-3.4C124.9,210.4,124.7,210.4,124.4,210.5z"></path>		<linearGradient id="SVGID_7_" gradientUnits="userSpaceOnUse" x1="161.9645" y1="248.3948" x2="161.9645" y2="186.9998">			<stop offset="2.886407e-02" style="stop-color:#000000"></stop>			<stop offset="0.5736" style="stop-color:#C6883C"></stop>			<stop offset="1" style="stop-color:#EFCF80"></stop>		</linearGradient>		<path class="st6" d="M146.6,210.8c0.9-1.3,5.6-1,6.1-3.5c1.6,3.9,2.6,3.3,2.6,6.9v11.6c1.6,0.9,2.8,1.9,3.7,3.1   c0.2-0.2,0.5-0.4,0.7-0.6v-14c0-2-0.7-3.4-2.2-3.4c-0.2,0-0.5,0-0.7,0.1c0.9-1.3,5.6-1,6.1-3.5c1.6,3.9,2.6,3.3,2.6,6.9v11.6   c1.5,0.9,2.6,2.1,3.6,3.3c2.8-2.6,2.9-6.1,2.1-9.5c-0.5-2.3-1.2-4.7-1.7-7.1c-0.3-1.2-0.4-2.3-0.4-3.5c0-6.5,5.6-9.6,7.5-9.6   c0.3,0,0.5,0.1,0.5,0.2c0.1,0.1,0.1,0.1,0.1,0.2c-0.5,0-2.8,0.9-2.8,4.6c0,2.9,0.7,5.6,1.3,8.8c0.3,2,0.6,4.2,0.6,6.9   c0,5.2-6.1,10-9.9,12.5c-2.1-2.4-4.3-3.6-5.8-4.1c-1.5,1.4-3,2.7-4.4,4.1c-2.9-3.3-6.2-4.4-7.3-4.4c-0.3,0-0.5,0.1-0.6,0.1   l-0.2,0.1c0-0.7,0.4-1.1,0.7-1.4c0.2-0.2,0.5-0.3,0.7-0.5v-12.3c0-2-0.8-3.4-2.2-3.4C147.1,210.7,146.9,210.7,146.6,210.8z"></path>		<linearGradient id="SVGID_8_" gradientUnits="userSpaceOnUse" x1="188.5216" y1="248.3948" x2="188.5216" y2="186.9998">			<stop offset="2.886407e-02" style="stop-color:#000000"></stop>			<stop offset="0.5736" style="stop-color:#C6883C"></stop>			<stop offset="1" style="stop-color:#EFCF80"></stop>		</linearGradient>		<path class="st7" d="M179.3,225.9c0.1-0.1,0.2-0.3,0.3-0.5c0.2-0.3,0.5-0.7,0.9-1v-11.7c3.2-1.4,6.3-3,9.5-4.9   c1.8,1.6,5.4,4,7.7,4c-0.3,0.6-0.7,1.1-1.2,1.5v11.8c-2.8,1.5-5.4,3.1-7.8,5.1C186.5,228.7,181.8,225.9,179.3,225.9z M184.4,223.5   c2.7,0,5.3,1.9,6.4,3v-11.7c1.3,0,2.1,0,3.2-0.6c-0.2,0-0.4,0-0.6,0c-2.6,0-5.4-2-7.2-3.8v12.7c-1.2,0-2.1,0-3.2,0.6   C183.5,223.6,183.9,223.5,184.4,223.5z"></path>		<linearGradient id="SVGID_9_" gradientUnits="userSpaceOnUse" x1="209.8346" y1="248.3948" x2="209.8346" y2="186.9998">			<stop offset="2.886407e-02" style="stop-color:#000000"></stop>			<stop offset="0.5736" style="stop-color:#C6883C"></stop>			<stop offset="1" style="stop-color:#EFCF80"></stop>		</linearGradient>		<path class="st8" d="M200.6,225.9c0.1-0.1,0.2-0.3,0.3-0.5c0.2-0.3,0.5-0.7,0.9-1v-11.7c3.2-1.4,6.3-3,9.5-4.9   c1.8,1.6,5.4,4,7.7,4c-0.3,0.6-0.7,1.1-1.2,1.5v11.8c-2.8,1.5-5.4,3.1-7.8,5.1C207.8,228.7,203.1,225.9,200.6,225.9z M205.7,223.5   c2.7,0,5.3,1.9,6.4,3v-11.7c1.3,0,2.1,0,3.2-0.6c-0.2,0-0.4,0-0.6,0c-2.6,0-5.4-2-7.2-3.8v12.7c-1.2,0-2.1,0-3.2,0.6   C204.8,223.6,205.2,223.5,205.7,223.5z"></path>		<linearGradient id="SVGID_10_" gradientUnits="userSpaceOnUse" x1="231.5177" y1="248.3948" x2="231.5177" y2="186.9998">			<stop offset="2.886407e-02" style="stop-color:#000000"></stop>			<stop offset="0.5736" style="stop-color:#C6883C"></stop>			<stop offset="1" style="stop-color:#EFCF80"></stop>		</linearGradient>		<path class="st9" d="M225.3,208.1c0.4,0.2,5.9,2.6,8,3.2v-8.4c-1-1-1.7-1.6-2.6-1.6c1.7-0.8,3.2-2.4,4.4-3.9   c1.6,1.8,3.9,3.5,6.1,4.3c-1.3,0.8-1.9,2.8-1.9,5.4v17.5c0,2.1,0.5,3.8,2,3.8c0.2,0,0.5-0.1,0.8-0.1c-0.9,1.3-6.4,1-6.9,3.5   c-0.6-3.7-1.9-2.7-1.9-6.3c-0.9,0.7-8.2,4.4-9,6.6c0-0.2,0-0.5,0-0.7c0-1.2-0.5-2.6-1.2-4.4c-1.1-2.5-1.7-4.2-1.9-6.9v-1.5   C221.3,213.9,225.3,210.7,225.3,208.1z M230.2,226.8l3.1-1.8v-12.6c-0.5-0.1-1.4-0.4-2.1-0.7c-2.9,3.5-3.7,6.6-3.7,10.3v0.1   C227.5,223.8,228.7,225.7,230.2,226.8z"></path>		<linearGradient id="SVGID_11_" gradientUnits="userSpaceOnUse" x1="272.0641" y1="248.3948" x2="272.0641" y2="186.9998">			<stop offset="2.886407e-02" style="stop-color:#000000"></stop>			<stop offset="0.5736" style="stop-color:#C6883C"></stop>			<stop offset="1" style="stop-color:#EFCF80"></stop>		</linearGradient>		<path class="st10" d="M259.6,226c1-0.5,2.1-0.8,3.3-0.8h0.4v-18.3c-1-1-1.6-1.5-2.6-1.5c1.7-0.8,3.2-2.4,4.4-3.8   c1.3,1.5,2.8,3.1,4.3,4.5c1.3-1.3,2.8-2.7,4-3.8c0.7-0.7,1.4-1.3,2.1-1.9c3,1.3,4.9,3.4,6.4,6.2c0.8,1.5,1.2,2.7,2.2,4   c-0.2-0.1-0.5-0.1-0.8-0.1c-1.8,0-4,1.8-6,2.9c3.8,0.6,7.2,2.6,7.2,7c0,2.5-2.3,5.2-4.2,6.3c-1.9,1.1-7.9,3.8-8.8,5.1   c-1.2-0.9-2.8-2.3-4.8-3.4C264.4,227,262.2,226.2,259.6,226z M269.4,218.9l2.1-1.7V205l-2.1,2V218.9z M269.4,219.6v6.4l2.1,0.5   V218L269.4,219.6z M272.2,216.7l3.8-2.9c0.9-0.9,1.7-2.2,1.7-3.5c0-2.3-3.9-5.9-5.5-6V216.7z M272.2,217.5v9.1   c1,0.2,1.9,0.3,2.6,0.3c2.6,0,3.8-2.6,3.8-4.7c0-3.2-2.2-5.5-5.5-5.5L272.2,217.5z"></path>		<linearGradient id="SVGID_12_" gradientUnits="userSpaceOnUse" x1="295.4577" y1="248.3948" x2="295.4577" y2="186.9998">			<stop offset="2.886407e-02" style="stop-color:#000000"></stop>			<stop offset="0.5736" style="stop-color:#C6883C"></stop>			<stop offset="1" style="stop-color:#EFCF80"></stop>		</linearGradient>		<path class="st11" d="M285.7,211.4c1.7-0.8,3.2-2.4,4.4-3.9c1.2,1.3,2.5,2.6,3.8,3.8c1.7-1,3-2.1,3.6-3.1c0.5,2,1.9,4.1,4.2,4.1   c1.6,0,2.8-1,3.5-2.3c-0.5,3.2-2.3,6.4-5.9,6.4h0c-2,0-4-1.5-5-3.6v12.1c0.1,1.9,1,3.5,2.2,3.5c0.2,0,0.5-0.1,0.7-0.2   c-0.9,1.3-5.8,1-6.2,3.5c-1.6-3.9-2.4-3.2-2.4-6.8v-12.1C287.7,212.1,286.9,211.4,285.7,211.4z"></path>		<linearGradient id="SVGID_13_" gradientUnits="userSpaceOnUse" x1="314.9762" y1="248.3948" x2="314.9762" y2="186.9998">			<stop offset="2.886407e-02" style="stop-color:#000000"></stop>			<stop offset="0.5736" style="stop-color:#C6883C"></stop>			<stop offset="1" style="stop-color:#EFCF80"></stop>		</linearGradient>		<path class="st12" d="M305.7,225.9c0.1-0.1,0.2-0.3,0.3-0.5c0.2-0.3,0.5-0.7,0.9-1v-11.7c3.2-1.4,6.3-3,9.5-4.9   c1.8,1.6,5.4,4,7.7,4c-0.3,0.6-0.7,1.1-1.2,1.5v11.8c-2.8,1.5-5.4,3.1-7.8,5.1C312.9,228.7,308.3,225.9,305.7,225.9z M310.8,223.5   c2.7,0,5.3,1.9,6.4,3v-11.7c1.3,0,2.1,0,3.2-0.6c-0.2,0-0.4,0-0.6,0c-2.6,0-5.4-2-7.2-3.8v12.7c-1.2,0-2.1,0-3.2,0.6   C309.9,223.6,310.4,223.5,310.8,223.5z"></path>		<linearGradient id="SVGID_14_" gradientUnits="userSpaceOnUse" x1="341.8161" y1="248.3948" x2="341.8161" y2="186.9998">			<stop offset="2.886407e-02" style="stop-color:#000000"></stop>			<stop offset="0.5736" style="stop-color:#C6883C"></stop>			<stop offset="1" style="stop-color:#EFCF80"></stop>		</linearGradient>		<path class="st13" d="M326.5,210.8c0.9-1.3,5.6-1,6.1-3.5c1.6,3.9,2.6,3.3,2.6,6.9v11.6c1.6,0.9,2.8,1.9,3.7,3.1   c0.2-0.2,0.5-0.4,0.7-0.6v-14c0-2-0.7-3.4-2.2-3.4c-0.2,0-0.5,0-0.7,0.1c0.9-1.3,5.6-1,6.1-3.5c1.6,3.9,2.6,3.3,2.6,6.9v11.6   c1.5,0.9,2.6,2.1,3.6,3.3c2.8-2.6,2.9-6.1,2.1-9.5c-0.5-2.3-1.2-4.7-1.7-7.1c-0.3-1.2-0.4-2.3-0.4-3.5c0-6.5,5.6-9.6,7.5-9.6   c0.3,0,0.5,0.1,0.5,0.2c0.1,0.1,0.1,0.1,0.1,0.2c-0.5,0-2.8,0.9-2.8,4.6c0,2.9,0.7,5.6,1.3,8.8c0.3,2,0.6,4.2,0.6,6.9   c0,5.2-6.1,10-9.9,12.5c-2.1-2.4-4.3-3.6-5.8-4.1c-1.5,1.4-3,2.7-4.4,4.1c-2.9-3.3-6.2-4.4-7.3-4.4c-0.3,0-0.5,0.1-0.6,0.1   l-0.2,0.1c0-0.7,0.4-1.1,0.7-1.4c0.2-0.2,0.5-0.3,0.7-0.5v-12.3c0-2-0.8-3.4-2.2-3.4C326.9,210.7,326.7,210.7,326.5,210.8z"></path>		<linearGradient id="SVGID_15_" gradientUnits="userSpaceOnUse" x1="367.3332" y1="248.3948" x2="367.3332" y2="186.9998">			<stop offset="2.886407e-02" style="stop-color:#000000"></stop>			<stop offset="0.5736" style="stop-color:#C6883C"></stop>			<stop offset="1" style="stop-color:#EFCF80"></stop>		</linearGradient>		<path class="st14" d="M358.3,209.6c0.7,0.9,1.7,1.5,2.8,1.6c0.1,0,0.3,0,0.4,0c2.4,0,5.1-2,6.2-4.1c1.1,3,3.3,6.3,6.1,7.8   c0,2.2-1.2,3.8-3.1,4.9c0.9,0.7,1,1.1,1.2,2c0,0.1,0,0.3-0.1,0.4c-0.7-1.2-1.6-1.5-2.3-1.5c-0.3,0-0.5,0-0.7,0.1   c-0.1,0-0.2,0.1-0.3,0.1c-2.9,1.3-5.5,2.8-5.5,5.3c0.1,0.1,0.2,0.1,0.3,0.2l0.2,0.2c1.5-2,5.3-3.4,7.7-3.4c3.2,0,5,2.5,5.3,5.5   c-0.7-0.9-1.7-1.5-2.8-1.6c-0.2,0-0.3,0-0.5,0c-2.3,0-6.6,1.5-7.7,3.6c-1.3-2.6-3.9-5.6-6.8-6.5c0-8.9,10.7-7.6,10.7-11.2   c0-0.4-0.1-0.7-0.1-0.9c0-0.1,0-0.3-0.1-0.3c-1.5,2.2-4.2,3.3-6.2,3.3l-0.3,0C361.6,215.1,358.6,214.4,358.3,209.6z"></path>	</g>	<g>		<circle class="st15" cx="206.2" cy="106.2" r="70.8"></circle>	</g>	<radialGradient id="SVGID_16_" cx="227.5547" cy="106.2035" r="62.0763" gradientUnits="userSpaceOnUse">		<stop offset="0" style="stop-color:#C6883C"></stop>		<stop offset="0.5" style="stop-color:#EFCF80"></stop>		<stop offset="1" style="stop-color:#C6883C"></stop>	</radialGradient>	<path class="st16" d="M246.5,138c-5.2,7.6-11.3,14.3-20.2,19.2c14.5-18.9,22.1-38,5.6-59.3c4,11.9,0.6,21-10.3,27.4  c1.6-2.8,3.3-5.3,4.4-8c2.6-6.4,1.3-12.6-2.7-17.8c-3.3-4.3-7.3-8.3-11.6-11.7c-12.3-9.9-23.4-20.7-30.3-35.2  c-1.8-3.8-3.1-7.9-4.6-11.8c20.2-10.2,51.5-9.4,74.7,9.6c24.1,19.8,32.4,51.7,22.4,79.3c-11.2,30.5-38.8,49.1-70.9,48  c10.1-4.1,19.3-8.4,27.3-14.9C238.5,156.5,245.1,149,246.5,138z"></path>	<g>		<path d="M173.7,42.2c-6.6,10.3-5.1,20.7-2.4,31.5c-1.5,0-3,0-4.4,0c-0.1,0.2-0.2,0.5-0.3,0.7c2,1,4,2,6.3,3.1   c1,4.2,0.4,8.6-2,12.7c-0.9,1.7-1.9,3.3-2.7,5.1c-1.5,3.5-0.8,5.3,2.7,6.9c1,0.5,2.2,0.6,2.9,1.3c0.8,0.8,1.8,2.2,1.6,3.1   c-1.1,6.6-0.8,7.2,6.2,8.5c-0.7,0.8-1.3,1.6-2,2.3c-1.6,1.9-1.5,3.8,0.6,5.2c2.6,1.6,3.4,3.9,3.3,6.8c0,0.2,0,0.4,0,0.6   c0.4,8.9,2.7,10.2,10.9,6.7c3.4-1.4,7-2.7,10.6-3c8.6-0.8,13.8,5,12.3,13.5c-1.8,10.3-7.6,17.9-17,22.4   c-11.2,5.4-22.2,4.3-32.4-2.4c-23.6-15.7-35.4-37.9-33.6-66.2c1.7-25.6,14.7-44.9,36.9-58C171.8,42.8,172.5,42.6,173.7,42.2z"></path>	</g></g></svg>